<svg t="1648783398199" class="icon" viewBox="0 0 1024 1024" version="1.1" xmlns="http://www.w3.org/2000/svg" p-id="2715" width="200" height="200"><path d="M146.285714 131.657143a14.628571 14.628571 0 0 0-14.628571 14.628571v731.428572a14.628571 14.628571 0 0 0 14.628571 14.628571h731.428572a14.628571 14.628571 0 0 0 14.628571-14.628571V146.285714a14.628571 14.628571 0 0 0-14.628571-14.628571H146.285714M146.285714 0h731.428572a146.285714 146.285714 0 0 1 146.285714 146.285714v731.428572a146.285714 146.285714 0 0 1-146.285714 146.285714H146.285714a146.285714 146.285714 0 0 1-146.285714-146.285714V146.285714a146.285714 146.285714 0 0 1 146.285714-146.285714z" p-id="2716" fill="#e6e6e6"></path><path d="M292.571429 585.142857m54.857142 0l329.142858 0q54.857143 0 54.857142 54.857143l0 0q0 54.857143-54.857142 54.857143l-329.142858 0q-54.857143 0-54.857142-54.857143l0 0q0-54.857143 54.857142-54.857143Z" p-id="2717" fill="#e6e6e6"></path><path d="M292.571429 731.428571m54.857142 0l329.142858 0q54.857143 0 54.857142 54.857143l0 0q0 54.857143-54.857142 54.857143l-329.142858 0q-54.857143 0-54.857142-54.857143l0 0q0-54.857143 54.857142-54.857143Z" p-id="2718" fill="#e6e6e6"></path><path d="M541.696 71.972571c2.194286-1.316571 0 410.258286 0 410.258286l86.016-86.016 85.942857 86.016V71.972571S539.501714 73.142857 541.696 71.972571z" p-id="2719" fill="#e6e6e6"></path></svg>